<mxfile host="app.diagrams.net" modified="2023-09-01T00:13:55.652Z" agent="Mozilla/5.0 (Windows NT 10.0; Win64; x64) AppleWebKit/537.36 (KHTML, like Gecko) Chrome/116.0.0.0 Safari/537.36" etag="pJxPd8rjGYTN4pyQYVa8" version="21.7.1" type="github">
  <diagram name="Page-1" id="xrkrfCEE-KdvUV7OIDs_">
    <mxGraphModel dx="1050" dy="542" grid="1" gridSize="10" guides="1" tooltips="1" connect="1" arrows="1" fold="1" page="1" pageScale="1" pageWidth="850" pageHeight="1100" math="0" shadow="0">
      <root>
        <mxCell id="0" />
        <mxCell id="1" parent="0" />
        <mxCell id="3-YEN-E-dseVNyR-mr-9-2" value="" style="rounded=0;whiteSpace=wrap;html=1;fillColor=#d5e8d4;strokeColor=#82b366;" vertex="1" parent="1">
          <mxGeometry x="280" y="100" width="560" height="600" as="geometry" />
        </mxCell>
        <mxCell id="3-YEN-E-dseVNyR-mr-9-11" value="" style="edgeStyle=orthogonalEdgeStyle;rounded=0;orthogonalLoop=1;jettySize=auto;html=1;" edge="1" parent="1" source="3-YEN-E-dseVNyR-mr-9-1" target="3-YEN-E-dseVNyR-mr-9-7">
          <mxGeometry relative="1" as="geometry" />
        </mxCell>
        <mxCell id="3-YEN-E-dseVNyR-mr-9-1" value="User" style="shape=umlActor;verticalLabelPosition=bottom;verticalAlign=top;html=1;outlineConnect=0;perimeterSpacing=0;strokeWidth=1;" vertex="1" parent="1">
          <mxGeometry x="150" y="350" width="70" height="120" as="geometry" />
        </mxCell>
        <mxCell id="3-YEN-E-dseVNyR-mr-9-3" value="System" style="text;html=1;strokeColor=none;fillColor=none;align=center;verticalAlign=middle;whiteSpace=wrap;rounded=0;fontSize=20;" vertex="1" parent="1">
          <mxGeometry x="515" y="90" width="90" height="70" as="geometry" />
        </mxCell>
        <mxCell id="3-YEN-E-dseVNyR-mr-9-4" value="Actor" style="shape=umlActor;verticalLabelPosition=bottom;verticalAlign=top;html=1;outlineConnect=0;" vertex="1" parent="1">
          <mxGeometry x="930" y="250" width="30" height="60" as="geometry" />
        </mxCell>
        <mxCell id="3-YEN-E-dseVNyR-mr-9-21" value="" style="edgeStyle=orthogonalEdgeStyle;rounded=0;orthogonalLoop=1;jettySize=auto;html=1;entryX=0.09;entryY=0.2;entryDx=0;entryDy=0;dashed=1;entryPerimeter=0;" edge="1" parent="1" source="3-YEN-E-dseVNyR-mr-9-5" target="3-YEN-E-dseVNyR-mr-9-16">
          <mxGeometry relative="1" as="geometry" />
        </mxCell>
        <mxCell id="3-YEN-E-dseVNyR-mr-9-5" value="Select suburb(s)" style="ellipse;whiteSpace=wrap;html=1;fillColor=#ffe6cc;strokeColor=#d79b00;" vertex="1" parent="1">
          <mxGeometry x="305" y="150" width="120" height="80" as="geometry" />
        </mxCell>
        <mxCell id="3-YEN-E-dseVNyR-mr-9-23" value="" style="edgeStyle=orthogonalEdgeStyle;rounded=0;orthogonalLoop=1;jettySize=auto;html=1;entryX=0.017;entryY=0.36;entryDx=0;entryDy=0;dashed=1;entryPerimeter=0;" edge="1" parent="1" source="3-YEN-E-dseVNyR-mr-9-6" target="3-YEN-E-dseVNyR-mr-9-16">
          <mxGeometry relative="1" as="geometry">
            <mxPoint x="525" y="300" as="targetPoint" />
          </mxGeometry>
        </mxCell>
        <mxCell id="3-YEN-E-dseVNyR-mr-9-6" value="Restrict Price Range" style="ellipse;whiteSpace=wrap;html=1;fillColor=#ffe6cc;strokeColor=#d79b00;" vertex="1" parent="1">
          <mxGeometry x="305" y="260" width="120" height="80" as="geometry" />
        </mxCell>
        <mxCell id="3-YEN-E-dseVNyR-mr-9-24" value="" style="edgeStyle=orthogonalEdgeStyle;rounded=0;orthogonalLoop=1;jettySize=auto;html=1;dashed=1;" edge="1" parent="1" source="3-YEN-E-dseVNyR-mr-9-7" target="3-YEN-E-dseVNyR-mr-9-16">
          <mxGeometry relative="1" as="geometry" />
        </mxCell>
        <mxCell id="3-YEN-E-dseVNyR-mr-9-7" value="Search through reviews" style="ellipse;whiteSpace=wrap;html=1;fillColor=#ffe6cc;strokeColor=#d79b00;" vertex="1" parent="1">
          <mxGeometry x="305" y="370" width="120" height="80" as="geometry" />
        </mxCell>
        <mxCell id="3-YEN-E-dseVNyR-mr-9-26" value="" style="edgeStyle=orthogonalEdgeStyle;rounded=0;orthogonalLoop=1;jettySize=auto;html=1;entryX=-0.003;entryY=0.6;entryDx=0;entryDy=0;dashed=1;entryPerimeter=0;" edge="1" parent="1" source="3-YEN-E-dseVNyR-mr-9-8" target="3-YEN-E-dseVNyR-mr-9-16">
          <mxGeometry relative="1" as="geometry">
            <mxPoint x="525" y="520" as="targetPoint" />
          </mxGeometry>
        </mxCell>
        <mxCell id="3-YEN-E-dseVNyR-mr-9-8" value="Search description for keywords" style="ellipse;whiteSpace=wrap;html=1;fillColor=#ffe6cc;strokeColor=#d79b00;" vertex="1" parent="1">
          <mxGeometry x="305" y="480" width="120" height="80" as="geometry" />
        </mxCell>
        <mxCell id="3-YEN-E-dseVNyR-mr-9-28" value="" style="edgeStyle=orthogonalEdgeStyle;rounded=0;orthogonalLoop=1;jettySize=auto;html=1;entryX=0.05;entryY=0.71;entryDx=0;entryDy=0;dashed=1;entryPerimeter=0;" edge="1" parent="1" source="3-YEN-E-dseVNyR-mr-9-9" target="3-YEN-E-dseVNyR-mr-9-16">
          <mxGeometry relative="1" as="geometry">
            <mxPoint x="505" y="630" as="targetPoint" />
          </mxGeometry>
        </mxCell>
        <mxCell id="3-YEN-E-dseVNyR-mr-9-9" value="Select listing type" style="ellipse;whiteSpace=wrap;html=1;fillColor=#ffe6cc;strokeColor=#d79b00;" vertex="1" parent="1">
          <mxGeometry x="305" y="590" width="120" height="80" as="geometry" />
        </mxCell>
        <mxCell id="3-YEN-E-dseVNyR-mr-9-12" value="" style="endArrow=classic;html=1;rounded=0;entryX=0;entryY=0.5;entryDx=0;entryDy=0;" edge="1" parent="1" source="3-YEN-E-dseVNyR-mr-9-1" target="3-YEN-E-dseVNyR-mr-9-6">
          <mxGeometry width="50" height="50" relative="1" as="geometry">
            <mxPoint x="430" y="360" as="sourcePoint" />
            <mxPoint x="480" y="310" as="targetPoint" />
          </mxGeometry>
        </mxCell>
        <mxCell id="3-YEN-E-dseVNyR-mr-9-13" value="" style="endArrow=classic;html=1;rounded=0;entryX=0;entryY=0.5;entryDx=0;entryDy=0;" edge="1" parent="1" source="3-YEN-E-dseVNyR-mr-9-1" target="3-YEN-E-dseVNyR-mr-9-5">
          <mxGeometry width="50" height="50" relative="1" as="geometry">
            <mxPoint x="430" y="360" as="sourcePoint" />
            <mxPoint x="480" y="310" as="targetPoint" />
          </mxGeometry>
        </mxCell>
        <mxCell id="3-YEN-E-dseVNyR-mr-9-14" value="" style="endArrow=classic;html=1;rounded=0;entryX=0.028;entryY=0.39;entryDx=0;entryDy=0;entryPerimeter=0;" edge="1" parent="1" source="3-YEN-E-dseVNyR-mr-9-1" target="3-YEN-E-dseVNyR-mr-9-9">
          <mxGeometry width="50" height="50" relative="1" as="geometry">
            <mxPoint x="430" y="530" as="sourcePoint" />
            <mxPoint x="480" y="480" as="targetPoint" />
          </mxGeometry>
        </mxCell>
        <mxCell id="3-YEN-E-dseVNyR-mr-9-15" value="" style="endArrow=classic;html=1;rounded=0;entryX=0;entryY=0.5;entryDx=0;entryDy=0;" edge="1" parent="1" source="3-YEN-E-dseVNyR-mr-9-1" target="3-YEN-E-dseVNyR-mr-9-8">
          <mxGeometry width="50" height="50" relative="1" as="geometry">
            <mxPoint x="430" y="530" as="sourcePoint" />
            <mxPoint x="480" y="480" as="targetPoint" />
          </mxGeometry>
        </mxCell>
        <mxCell id="3-YEN-E-dseVNyR-mr-9-16" value="Search Database" style="ellipse;whiteSpace=wrap;html=1;fillColor=#ffe6cc;strokeColor=#d79b00;" vertex="1" parent="1">
          <mxGeometry x="500" y="370" width="120" height="80" as="geometry" />
        </mxCell>
        <mxCell id="3-YEN-E-dseVNyR-mr-9-17" value="Select suburb(s)" style="ellipse;whiteSpace=wrap;html=1;fillColor=#ffe6cc;strokeColor=#d79b00;" vertex="1" parent="1">
          <mxGeometry x="605" y="580" width="120" height="80" as="geometry" />
        </mxCell>
        <mxCell id="3-YEN-E-dseVNyR-mr-9-18" value="Return results" style="ellipse;whiteSpace=wrap;html=1;fillColor=#ffe6cc;strokeColor=#d79b00;" vertex="1" parent="1">
          <mxGeometry x="680" y="360" width="120" height="80" as="geometry" />
        </mxCell>
        <mxCell id="3-YEN-E-dseVNyR-mr-9-19" value="Select suburb(s)" style="ellipse;whiteSpace=wrap;html=1;fillColor=#ffe6cc;strokeColor=#d79b00;" vertex="1" parent="1">
          <mxGeometry x="700" y="510" width="120" height="80" as="geometry" />
        </mxCell>
        <mxCell id="3-YEN-E-dseVNyR-mr-9-29" value="&amp;lt;&amp;lt;includes&amp;gt;&amp;gt;" style="text;html=1;strokeColor=none;fillColor=none;align=center;verticalAlign=middle;whiteSpace=wrap;rounded=0;" vertex="1" parent="1">
          <mxGeometry x="430" y="166" width="60" height="30" as="geometry" />
        </mxCell>
        <mxCell id="3-YEN-E-dseVNyR-mr-9-30" value="&amp;lt;&amp;lt;includes&amp;gt;&amp;gt;" style="text;html=1;strokeColor=none;fillColor=none;align=center;verticalAlign=middle;whiteSpace=wrap;rounded=0;" vertex="1" parent="1">
          <mxGeometry x="430" y="277" width="60" height="30" as="geometry" />
        </mxCell>
        <mxCell id="3-YEN-E-dseVNyR-mr-9-31" value="&amp;lt;&amp;lt;includes&amp;gt;&amp;gt;" style="text;html=1;strokeColor=none;fillColor=none;align=center;verticalAlign=middle;whiteSpace=wrap;rounded=0;" vertex="1" parent="1">
          <mxGeometry x="430" y="385" width="60" height="30" as="geometry" />
        </mxCell>
        <mxCell id="3-YEN-E-dseVNyR-mr-9-32" value="&amp;lt;&amp;lt;includes&amp;gt;&amp;gt;" style="text;html=1;strokeColor=none;fillColor=none;align=center;verticalAlign=middle;whiteSpace=wrap;rounded=0;" vertex="1" parent="1">
          <mxGeometry x="425" y="490" width="60" height="30" as="geometry" />
        </mxCell>
        <mxCell id="3-YEN-E-dseVNyR-mr-9-33" value="&amp;lt;&amp;lt;includes&amp;gt;&amp;gt;" style="text;html=1;strokeColor=none;fillColor=none;align=center;verticalAlign=middle;whiteSpace=wrap;rounded=0;" vertex="1" parent="1">
          <mxGeometry x="438" y="605" width="60" height="30" as="geometry" />
        </mxCell>
      </root>
    </mxGraphModel>
  </diagram>
</mxfile>
